<?xml version="1.0" standalone="no"?><!DOCTYPE svg PUBLIC "-//W3C//DTD SVG 1.1//EN" "http://www.w3.org/Graphics/SVG/1.1/DTD/svg11.dtd"><svg t="1566879032837" class="icon" viewBox="0 0 1024 1024" version="1.1" xmlns="http://www.w3.org/2000/svg" p-id="2022" xmlns:xlink="http://www.w3.org/1999/xlink" width="200" height="200"><defs><style type="text/css"></style></defs><path d="M480.81198236 791.93322366c-8.21483472 0-14.24559092 0-20.65211908-5.91265646-3.97397997-7.96483133-7.57678934-15.4910065-7.57678931-22.31778564 0-8.57680282 0-14.77320543 6.72861839-21.50182378l0.18098403-0.18098403 74.12216539-84.70513026h-93.18837347c-15.75941498 0-27.52030987-3.77305701-34.95752678-11.21487522-5.0644855-5.0644855-7.85286667-11.90506854-7.85286659-19.26099597 0-7.33138724 2.76844224-14.14743007 7.79611735-19.20424677l107.74685213-103.26673035c5.0629517-5.0629517 11.90353482-7.85133283 19.25946223-7.85133285 6.95408153 0 13.44803418 2.49236492 18.41435879 7.04150604 3.97244621 7.95716259 7.57372176 15.47873642 7.5737218 22.31011684 0 8.57680282 0 14.77320543-6.72861839 21.50029l-57.96550579 57.96857332h99.2881491c20.48647265 0 32.71823273 12.23176007 32.71823273 32.71823273 0 8.29919171 0 23.74725284-15.70266584 39.45298613l-106.81892541 106.81279043c-7.98783781 3.98778387-15.53548559 7.61206586-22.38527128 7.61206584z m362.17206296-210.90468528v-56.46241797h122.4617745c13.71951021 0 28.23044211 14.51093194 28.23044215 28.22890841 0 13.71951021-14.51093194 28.23197593-28.23044215 28.23197588h-122.4617745z m-792.95548084 0c-13.71951021 0-28.23044211-14.5124657-28.23044214-28.23197584 0-13.71797643 14.51093194-28.22890837 28.23044214-28.22890834h122.46177448v56.46241798h-122.46177448zM763.51364822 344.51307829c-3.2393075-3.19482836-6.44333842-6.1258495-9.55074227-8.96791235-9.61976169-8.8007322-17.92662218-16.40052794-23.97578352-28.49578313l-1.14265347-2.28684063-1.74388857-0.87117742 86.71282604-86.71282604c5.4786015-5.4786015 13.28238775-8.4970471 21.97575654-8.49704711 5.79915795 0 11.54616801 1.43253465 16.07843777 3.97091245 3.81753613 7.67648391 7.19028101 14.93425051 7.19028107 21.54016782 0 8.57680282 0 14.77320543-6.73015216 21.50335754l-88.81408143 88.81714887z m-599.52955896-88.0165246c-3.96937868-7.95716259-7.56758677-15.4772026-7.56758673-22.30244806 0-6.82831295 3.60127558-14.35142054 7.572188-22.31011684 5.03227644-4.60895788 11.56610693-7.03690475 18.97571605-7.03690475 7.96329761 0 16.31923853 2.92488607 23.58467398 8.24550998l90.81257458 90.81104083-0.29448251 0.19632168c-13.66889601 9.11361986-27.42521652 22.69049008-40.91312851 40.37477772l-92.16995486-87.97818056z m315.52266072-25.48347256v-131.43735567c0-13.71951021 14.51093194-28.23044211 28.23044217-28.23044212 18.33613689 0 28.23044211 14.5446747 28.23044216 28.23044212v131.43735567h-56.46088433z" p-id="2023"></path><path d="M162.20952543 953.48141494c-13.71644267 0-28.22430706-14.5124657-28.22430703-28.23197586 0-13.71797643 14.50786439-28.22890837 28.22430703-28.22890838h66.00549156v-335.24685324c0-73.90897235 29.28260359-143.89611269 82.45356611-197.06860898 53.17096257-53.17096257 123.15810288-82.45356614 197.06860905-82.45356618 73.91203988 0 143.89918027 29.28260359 197.07014278 82.45356618 53.16942878 53.17096257 82.45203236 123.15810288 82.45203243 197.06860898v335.24685324h66.00549146c13.71951021 0 28.23197593 14.51093194 28.23197593 28.22890838 0 13.71951021-14.5124657 28.23197593-28.23197593 28.23197586h-691.05533339z m345.52766672-601.30719035c-62.41188475 0-117.13961681 24.1537-158.26747217 69.8506354-42.38707479 47.08959221-64.79228494 103.17317078-64.79228498 162.18623671v312.809434h446.12104807v-312.81096779c0-61.8351899-23.66136207-120.99089578-64.92112112-162.33501167-41.11251774-45.59877458-95.79270309-69.70032662-158.1401698-69.70032665z" p-id="2024"></path></svg>