<?xml version="1.0" standalone="no"?><!DOCTYPE svg PUBLIC "-//W3C//DTD SVG 1.1//EN" "http://www.w3.org/Graphics/SVG/1.1/DTD/svg11.dtd"><svg t="1564393878041" class="icon" viewBox="0 0 1024 1024" version="1.1" xmlns="http://www.w3.org/2000/svg" p-id="12764" xmlns:xlink="http://www.w3.org/1999/xlink" width="200" height="200"><defs><style type="text/css"></style></defs><path d="M436.124915 438.370049h-96.949052c-32.654724 0-59.220776 26.572192-59.220777 59.220776v25.329899c0 32.648584 26.566052 59.220776 59.220777 59.220776h96.949052c32.654724 0 59.220776-26.572192 59.220777-59.220776v-25.329899c0-32.647561-26.566052-59.220776-59.220777-59.220776z m20.256347 84.550675c0 10.984169-9.278317 20.256346-20.256347 20.256346h-96.949052c-10.978029 0-20.256346-9.272177-20.256346-20.256346v-25.329899c0-11.174504 9.087982-20.256346 20.256346-20.256346h96.949052c11.358699 0 20.256346 8.891508 20.256347 20.256346v25.329899zM551.408545 721.067596l16.946974 16.946974-0.014326 0.011256c-4.927219 4.946662-7.642051 11.504008-7.642051 18.49319 0 7.001461 2.727111 13.57211 7.661493 18.49319 5.099135 5.099135 11.802814 7.648191 18.49933 7.64819s13.387915-2.536776 18.49319-7.635911c4.946662-4.934382 7.673773-11.504008 7.673773-18.505469 0-6.987135-2.711761-13.542434-7.657401-18.502399l16.949021-16.949021c-19.547195-19.546172-51.363831-19.570731-70.910003 0z m44.50768 44.4954l-4.325516-4.325515 4.319376 4.325515c-4.984524 4.997827-13.102413 4.984524-18.11252-0.012279a12.891611 12.891611 0 0 1-3.735067-9.030678 12.893658 12.893658 0 0 1 3.75451-9.056259c4.997827-4.997827 13.108552-4.984524 18.080797-0.01228a12.909008 12.909008 0 0 1 3.76679 9.068539c0 3.360538-1.364067 6.64535-3.74837 9.042957z" p-id="12765"></path><path d="M525.140275 694.799326l18.3663 18.3663c11.580756-11.580756 26.978445-17.960047 43.35339-17.960047 16.381086 0 31.779797 6.380314 43.35953 17.960047l18.3663-18.3663c-16.488533-16.488533-38.406728-25.570375-61.72583-25.570375-23.312962 0-45.237297 9.081843-61.71969 25.570375z" p-id="12766"></path><path d="M947.106726 384.15938v-98.008175h-98.008175v29.527501h-69.127403l-53.252855 53.246715H685.414585c-0.106424-0.912789-0.152473-1.829671-0.273223-2.739391l-7.280823-33.091676-0.444115-1.648546c-24.625864-77.878718-96.143711-130.212644-177.967275-130.212644H263.631306c-102.967116 0-186.738032 83.777055-186.738032 186.744171v236.249679c0 102.967116 83.770915 186.744171 186.738032 186.744172h236.249679c11.295254 0 22.12081-0.938372 32.889061-2.866281 17.97335 9.613962 38.146808 14.662955 58.821687 14.662954 48.242747 0 92.173283-26.825972 111.922069-68.328201 0.763386-1.605567 1.426489-3.15076 2.103917-4.706185h143.480832v29.51522h98.008175v-98.008174h-98.008175v29.5275H716.612121c0.551562-4.355191 1.01819-8.871041 1.01819-14.040784 0-30.834262-10.952446-59.918671-31.005155-82.799798v-61.745273h162.473395v29.527501h98.008175v-98.008175h-98.008175v29.515221H686.625156V407.890874h56.227606l53.252854-53.246715h52.992935v29.515221h98.008175z m-59.043745 336.045569h20.078291v20.078291h-20.078291v-20.078291z m0-197.538005h20.078291v20.078291h-20.078291V522.666944zM677.263951 711.225437l-0.089028 0.63445c-0.348947 1.763157-2.746554 13.013385-8.847505 25.837458-13.32447 28.005844-43.448558 46.106084-76.737732 46.106084-16.32378 0-31.518854-4.299933-45.173852-12.785187l-6.753821-4.210905-7.768941 1.737574c-10.470469 2.334161-20.940938 3.462868-32.014134 3.462868H263.631306c-81.480756 0-147.773601-66.297962-147.773602-147.779742v-236.250702c0-81.480756 66.291822-147.779741 147.773602-147.779741H499.449149c64.472384 0 120.857579 41.032532 140.562363 102.2068l6.608512 29.731138a128.827087 128.827087 0 0 1 1.039679 16.273639v241.272065l5.701862 5.708002c9.140171 9.144264 15.883759 20.038382 20.133549 31.902594-48.618301-47.201022-126.543068-46.825468-174.622086 1.227968l18.3663 18.366299c38.400588-38.381146 100.862175-38.381146 139.249461 0l17.685801-17.685801c2.904143 8.757454 4.491291 18.005073 4.491291 27.528984 0 4.767584-0.647753 9.282411-1.40193 14.496155z m210.79903-386.109801h20.078291V345.19495h-20.078291v-20.079314z" p-id="12767"></path></svg>