<?xml version="1.0" standalone="no"?><!DOCTYPE svg PUBLIC "-//W3C//DTD SVG 1.1//EN" "http://www.w3.org/Graphics/SVG/1.1/DTD/svg11.dtd"><svg t="1559808469422" class="icon" style="" viewBox="0 0 1024 1024" version="1.1" xmlns="http://www.w3.org/2000/svg" p-id="1997" xmlns:xlink="http://www.w3.org/1999/xlink" width="200" height="200"><defs><style type="text/css"></style></defs><path d="M381.468972 70.62069C381.33218 70.62069 381.351724 381.468972 381.351724 381.468972 381.351724 381.33218 70.503442 381.351724 70.503442 381.351724 70.640234 381.351724 70.62069 70.503442 70.62069 70.503442 70.62069 70.640234 381.468972 70.62069 381.468972 70.62069ZM0 381.468972C0 420.290242 31.592748 451.972414 70.503442 451.972414L381.468972 451.972414C420.290242 451.972414 451.972414 420.379666 451.972414 381.468972L451.972414 70.503442C451.972414 31.682172 420.379666 0 381.468972 0L70.503442 0C31.682172 0 0 31.592748 0 70.503442L0 381.468972ZM953.496558 70.62069C953.359766 70.62069 953.37931 381.468972 953.37931 381.468972 953.37931 381.33218 642.531028 381.351724 642.531028 381.351724 642.66782 381.351724 642.648276 70.503442 642.648276 70.503442 642.648276 70.640234 953.496558 70.62069 953.496558 70.62069ZM572.027586 381.468972C572.027586 420.290242 603.620334 451.972414 642.531028 451.972414L953.496558 451.972414C992.317828 451.972414 1024 420.379666 1024 381.468972L1024 70.503442C1024 31.682172 992.407252 0 953.496558 0L642.531028 0C603.709758 0 572.027586 31.592748 572.027586 70.503442L572.027586 381.468972ZM381.468972 642.648276C381.33218 642.648276 381.351724 953.496558 381.351724 953.496558 381.351724 953.359766 70.503442 953.37931 70.503442 953.37931 70.640234 953.37931 70.62069 642.531028 70.62069 642.531028 70.62069 642.66782 381.468972 642.648276 381.468972 642.648276ZM0 953.496558C0 992.317828 31.592748 1024 70.503442 1024L381.468972 1024C420.290242 1024 451.972414 992.407252 451.972414 953.496558L451.972414 642.531028C451.972414 603.709758 420.379666 572.027586 381.468972 572.027586L70.503442 572.027586C31.682172 572.027586 0 603.620334 0 642.531028L0 953.496558ZM953.496558 642.648276C953.359766 642.648276 953.37931 953.496558 953.37931 953.496558 953.37931 953.359766 642.531028 953.37931 642.531028 953.37931 642.66782 953.37931 642.648276 642.531028 642.648276 642.531028 642.648276 642.66782 953.496558 642.648276 953.496558 642.648276ZM572.027586 953.496558C572.027586 992.317828 603.620334 1024 642.531028 1024L953.496558 1024C992.317828 1024 1024 992.407252 1024 953.496558L1024 642.531028C1024 603.709758 992.407252 572.027586 953.496558 572.027586L642.531028 572.027586C603.709758 572.027586 572.027586 603.620334 572.027586 642.531028L572.027586 953.496558Z" p-id="1998"></path></svg>