<?xml version="1.0" standalone="no"?><!DOCTYPE svg PUBLIC "-//W3C//DTD SVG 1.1//EN" "http://www.w3.org/Graphics/SVG/1.1/DTD/svg11.dtd"><svg t="1564393302929" class="icon" viewBox="0 0 1024 1024" version="1.1" xmlns="http://www.w3.org/2000/svg" p-id="10826" xmlns:xlink="http://www.w3.org/1999/xlink" width="200" height="200"><defs><style type="text/css"></style></defs><path d="M780.224 151.552h-47.616c-21.472 0-22.144 47.616 1.344 47.616h81.792a13.44 13.44 0 0 1 13.408 13.408v621.568a13.44 13.44 0 0 1-13.408 13.408H216.288a13.44 13.44 0 0 1-13.408-13.408V212.576a13.44 13.44 0 0 1 13.408-13.408h96.544c22.144 0 20.128-47.616-1.344-47.616H250.496c-67.04 0-96.544 2.688-96.544 58.336v622.912c0 59.68 35.552 62.368 100.576 62.368H772.16c64.384 0 100.576 4.032 100.576-62.368V209.888c2.688-55.648-30.816-58.336-92.512-58.336zM311.52 301.088c0 13.408 10.72 24.8 24.8 24.8h369.472c27.488-20.128 12.064-48.96-10.72-48.96H336.32c-13.408-0.64-24.8 11.424-24.8 24.16z m384.224 108.64H326.944c-27.488 20.128-12.064 48.96 10.72 48.96h360.736a24.736 24.736 0 0 0 24.8-24.8c-4-14.784-14.72-24.16-27.456-24.16z m-262.848-228.672h167.648c20.128 0 32.864-12.064 32.864-26.144 0-14.08-13.408-26.144-32.864-26.144h-167.648c-20.128 0-34.208 12.064-34.208 26.144 1.344 14.08 14.08 26.144 34.208 26.144z m272.896 622.272c-1.344-2.688-6.72-3.36-15.424-2.688-16.096 2.016-28.16-3.36-35.552-16.096a36.832 36.832 0 0 1-4.032-28.832c2.688-9.376 10.72-23.456 24.128-41.568l8.032-11.392c24.8-33.536 29.504-63.04 15.424-87.84-14.752-25.472-56.992-23.456-87.84-10.048a152.64 152.64 0 0 0-137.472-85.824c-84.48 0-152.896 68.384-152.896 152.224s68.384 152.224 152.896 152.224c84.48 0 152.896-68.384 152.896-152.224 0-18.784-3.36-36.864-9.376-52.96a140.064 140.064 0 0 1 34.208-6.72c15.424-0.672 29.504 2.688 34.88 12.064 12.064 21.472 6.048 46.272-17.44 75.104l-4.704 6.048c-28.16 33.536-34.88 63.04-20.128 88.512 6.048 10.048 15.424 17.44 28.16 22.112 12.736 4.704 24.128 4.032 32.864-1.344 2.72-3.392 4.064-6.72 1.376-10.752z m-303.744-100.576a31.488 31.488 0 0 1-31.52-31.52c0-17.44 14.08-31.52 31.52-31.52 17.44 0 31.52 14.08 31.52 31.52 0.64 17.44-13.44 31.52-31.52 31.52z m70.4 70.4a31.488 31.488 0 0 1-31.52-31.52c0-17.44 14.08-31.52 31.52-31.52 17.44 0 31.52 14.08 31.52 31.52 0 16.768-14.08 31.52-31.52 31.52z m-12.736-101.92c0-6.72 6.048-12.736 12.736-12.736 6.72 0 12.736 5.376 12.736 12.736 0 6.72-6.048 12.736-12.736 12.736a12.736 12.736 0 0 1-12.736-12.736z m12.736-38.24a31.488 31.488 0 0 1-31.52-31.52c0-17.44 14.08-31.52 31.52-31.52 17.44 0 31.52 14.08 31.52 31.52 0 17.44-14.08 31.52-31.52 31.52z m69.728 69.76a31.488 31.488 0 0 1-31.52-31.52c0-17.44 14.08-31.52 31.52-31.52s31.52 14.08 31.52 31.52c0.672 17.44-13.408 31.52-31.52 31.52z m0 0" p-id="10827"></path></svg>