<?xml version="1.0" standalone="no"?><!DOCTYPE svg PUBLIC "-//W3C//DTD SVG 1.1//EN" "http://www.w3.org/Graphics/SVG/1.1/DTD/svg11.dtd"><svg t="1564393911559" class="icon" viewBox="0 0 1024 1024" version="1.1" xmlns="http://www.w3.org/2000/svg" p-id="13086" xmlns:xlink="http://www.w3.org/1999/xlink" width="200" height="200"><defs><style type="text/css"></style></defs><path d="M918.810288 1.02516a104.608162 104.608162 0 0 0-104.608162 104.608162 90.939362 90.939362 0 0 0 17.085999 52.978223l-74.248548 70.994072H266.938714L192.690165 158.611545a97.308837 97.308837 0 0 0 17.109246-55.000647A103.887528 103.887528 0 0 0 105.191249 0.002325a105.003348 105.003348 0 0 0 0 209.98345 102.515999 102.515999 0 0 0 53.675611-15.319284l81.919814 83.151866v481.058068l-74.783213 75.806048a103.306372 103.306372 0 0 0-60.951689-20.038275 104.608162 104.608162 0 1 0 104.724393 104.608162 119.71823 119.71823 0 0 0-12.948166-53.466394l73.551161-78.270151h483.21997l73.551161 78.33989a111.233346 111.233346 0 0 0-12.948165 51.374231 105.584505 105.584505 0 0 0 104.608162 105.607751 104.236222 104.236222 0 1 0-61.300383-188.294692l-58.813034-59.068742V261.197282l65.949635-66.391313a104.468685 104.468685 0 1 0 54.163782-193.780809zM659.219322 741.023298v-69.738774h92.985033v69.738774z m92.985033-116.231291h-139.47755v116.231291h-185.970065v-116.231291h-139.47755v-209.216324h139.47755v-139.477549h185.970065v139.477549h139.47755z m-371.940132-325.447615v69.738775h-92.985033v-69.738775z m-92.985033 441.678906v-69.738774h92.985033v69.738774z m464.925165-441.678906v69.738775h-92.985033v-69.738775zM47.075604 105.633322a58.115646 58.115646 0 1 1 58.115645 58.115646 58.115646 58.115646 0 0 1-58.115645-58.115646z m58.115645 871.734684a58.115646 58.115646 0 1 1 58.115646-58.115646 58.115646 58.115646 0 0 1-58.115646 58.115646z m813.619039-116.231291a58.115646 58.115646 0 1 1-58.115646 58.115645 58.115646 58.115646 0 0 1 58.115646-58.115645z m0-697.387747a58.115646 58.115646 0 1 1 58.115645-58.115646 58.115646 58.115646 0 0 1-58.115645 58.115646z" p-id="13087"></path><path d="M516.83599 91.73206a83.035634 83.035634 0 0 0-77.0381 52.93173l43.400765 16.667567a36.0317 36.0317 0 0 1 68.181275 2.719812l44.609569-13.11089a82.942649 82.942649 0 0 0-79.153509-59.208219z" p-id="13088"></path><path d="M649.014215 98.217766a154.936311 154.936311 0 0 0-132.178225-74.922691 153.07661 153.07661 0 0 0-131.45759 73.80687l39.658116 24.269094a107.537191 107.537191 0 0 1 184.087119 0.813619z" p-id="13089"></path><path d="M516.83599 949.170295a82.965896 82.965896 0 0 0 79.037278-59.20822l-44.609569-13.11089a36.008454 36.008454 0 0 1-68.181276 2.696566l-43.400764 16.690814a83.058881 83.058881 0 0 0 77.154331 52.93173z" p-id="13090"></path><path d="M385.3784 943.870148a153.07661 153.07661 0 0 0 131.45759 73.737131 154.936311 154.936311 0 0 0 132.178225-74.92269l-39.89058-23.9204a107.537191 107.537191 0 0 1-184.087119 0.836865z" p-id="13091"></path><path d="M873.549823 554.681292l13.110889 44.60957a82.524217 82.524217 0 0 0 6.27649-156.168363l-16.667567 43.400764a36.0317 36.0317 0 0 1-2.719812 68.158029z" p-id="13092"></path><path d="M1014.28267 520.183845a153.099857 153.099857 0 0 0-73.713885-131.45759l-24.269093 39.658116a107.583683 107.583683 0 0 1-0.836866 184.110366l23.897154 39.890579a154.913065 154.913065 0 0 0 74.92269-132.201471z" p-id="13093"></path><path d="M158.006748 486.523263l-16.644321-43.400764a82.50097 82.50097 0 0 0 6.253244 156.168363l13.134136-44.60957a36.008454 36.008454 0 0 1-2.743059-68.158029z" p-id="13094"></path><path d="M19.94722 520.183845a154.936311 154.936311 0 0 0 74.922691 132.201471l23.897153-39.890579a107.560437 107.560437 0 0 1-0.813619-184.110366l-24.269094-39.658116a153.07661 153.07661 0 0 0-73.737131 131.45759z" p-id="13095"></path><path d="M333.771707 438.821941h69.738774v46.492517h-69.738774z" p-id="13096"></path><path d="M473.249256 438.821941h92.985033v46.492517h-92.985033z" p-id="13097"></path><path d="M635.973064 438.821941h69.738774v46.492517h-69.738774z" p-id="13098"></path><path d="M333.771707 531.806974h69.738774v46.492517h-69.738774z" p-id="13099"></path><path d="M473.249256 531.806974h92.985033v46.492517h-92.985033z" p-id="13100"></path><path d="M635.973064 531.806974h69.738774v46.492517h-69.738774z" p-id="13101"></path></svg>